HIERARCHY
ROOT Hips
{
	OFFSET -3.958830 18.904000 13.208200
	CHANNELS 6 Xposition Yposition Zposition Zrotation Yrotation Xrotation 
	JOINT LHipJoint
	{
		OFFSET 0.000000 0.000000 0.000000
		CHANNELS 3 Zrotation Yrotation Xrotation
		JOINT LeftUpLeg
		{
			OFFSET 1.800000 -1.400000 0.085000
			CHANNELS 3 Zrotation Yrotation Xrotation
			JOINT LeftLeg
			{
				OFFSET 2.215000 -6.000000 0.000000
				CHANNELS 3 Zrotation Yrotation Xrotation
				JOINT LeftFoot
				{
					OFFSET 2.500000 -6.900000 0.000000
					CHANNELS 3 Zrotation Yrotation Xrotation
					JOINT LeftToeBase
					{
						OFFSET 0.200000 -0.500000 1.950000
						CHANNELS 3 Zrotation Yrotation Xrotation
						End Site
						{
							OFFSET 0.000000 0.000000 0.000000
						}
					}
				}
			}
		}
	}
	JOINT RHipJoint
	{
		OFFSET 0.000000 0.000000 0.000000
		CHANNELS 3 Zrotation Yrotation Xrotation
		JOINT RightUpLeg
		{
			OFFSET -1.800000 -1.400000 0.085000
			CHANNELS 3 Zrotation Yrotation Xrotation
			JOINT RightLeg
			{
				OFFSET -2.215000 -6.000000 0.000000
				CHANNELS 3 Zrotation Yrotation Xrotation
				JOINT RightFoot
				{
					OFFSET -2.500000 -6.900000 0.000000
					CHANNELS 3 Zrotation Yrotation Xrotation
					JOINT RightToeBase
					{
						OFFSET -0.200000 -0.500000 1.950000
						CHANNELS 3 Zrotation Yrotation Xrotation
						End Site
						{
							OFFSET 0.000000 0.000000 0.000000
						}
					}
				}
			}
		}
	}
	JOINT LowerBack
	{
		OFFSET 0.000000 0.000000 0.000000
		CHANNELS 3 Zrotation Yrotation Xrotation
		JOINT Spine
		{
			OFFSET -0.087000 1.940000 -0.288900
			CHANNELS 3 Zrotation Yrotation Xrotation
			JOINT Spine1
			{
				OFFSET 0.000000 1.950000 0.060000
				CHANNELS 3 Zrotation Yrotation Xrotation
				JOINT Neck
				{
					OFFSET 0.000000 0.000000 0.000000
					CHANNELS 3 Zrotation Yrotation Xrotation
					JOINT Neck1
					{
						OFFSET 0.000000 1.600000 0.340000
						CHANNELS 3 Zrotation Yrotation Xrotation
						JOINT Head
						{
							OFFSET 0.000000 1.667000 -0.240000
							CHANNELS 3 Zrotation Yrotation Xrotation
							End Site
							{
								OFFSET 0.000000 0.000000 0.000000
							}
						}
					}
				}
				JOINT LeftShoulder
				{
					OFFSET 0.000000 0.000000 0.000000
					CHANNELS 3 Zrotation Yrotation Xrotation
					JOINT LeftArm
					{
						OFFSET 2.700000 1.550000 -0.730000
						CHANNELS 3 Zrotation Yrotation Xrotation
						JOINT LeftForeArm
						{
							OFFSET 5.450000 0.000000 0.000000
							CHANNELS 3 Zrotation Yrotation Xrotation
							JOINT LeftHand
							{
								OFFSET 3.450000 0.000000 0.000000
								CHANNELS 3 Zrotation Yrotation Xrotation
								JOINT LeftHandIndex1
								{
									OFFSET 0.750000 0.000000 0.000000
									CHANNELS 3 Zrotation Yrotation Xrotation
									End Site
									{
										OFFSET 0.000000 0.000000 0.000000
									}
								}
							}
						}
					}
				}
				JOINT RightShoulder
				{
					OFFSET 0.000000 0.000000 0.000000
					CHANNELS 3 Zrotation Yrotation Xrotation
					JOINT RightArm
					{
						OFFSET -2.700000 1.550000 -0.730000
						CHANNELS 3 Zrotation Yrotation Xrotation
						JOINT RightForeArm
						{
							OFFSET -5.450000 0.000000 0.000000
							CHANNELS 3 Zrotation Yrotation Xrotation
							JOINT RightHand
							{
								OFFSET -3.450000 0.000000 0.000000
								CHANNELS 3 Zrotation Yrotation Xrotation
								JOINT RightHandIndex1
								{
									OFFSET -0.750000 0.000000 0.000000
									CHANNELS 3 Zrotation Yrotation Xrotation
									End Site
									{
										OFFSET 0.000000 0.000000 0.000000
									}
								}
							}
						}
					}
				}
			}
		}
	}
}
MOTION
Frames: 11
Frame Time: 0.016667
-0.219610 16.151830 -1.228840 9.033978 -37.869632 0.674710 -14.909879 10.451720 4.975477 -10.035795 -6.248902 -52.530419 -0.382921 2.578158 3.681682 -1.470780 1.884432 4.109671 0.637070 0.017210 0.805160 18.769060 -11.213269 3.039620 0.940078 -1.610973 -0.792005 5.464998 -4.792267 3.004240 -0.347214 -4.434705 3.265937 0.346740 0.175270 0.195960 -5.263623 2.358308 -7.978818 18.311936 12.781688 14.831555 -1.124313 14.109093 7.651145 1.444717 0.145879 -6.380006 0.427085 -0.635244 30.092461 -19.743410 9.035930 -6.619300 -24.190932 -3.435224 2.306963 1.149611 9.643441 2.176317 6.143422 7.189326 -0.923798 -4.261603 2.481023 0.618530 0.462830 -0.262590 0.176810 19.507408 7.717240 3.346861 37.310164 10.626200 -6.759555 19.465492 57.689493 7.175183 1.443459 -1.968380 -0.538850 0.164920 -0.213100 -0.666900 
-0.191080 16.128630 -1.202060 7.938264 -32.725826 -0.635539 -14.794953 10.572886 4.766751 -11.029564 -6.263054 -46.235305 -3.583441 2.081108 -1.753090 -1.515593 1.795348 4.156100 0.673530 0.052360 0.853270 18.866432 -11.154969 3.221730 2.073851 -2.282400 1.466622 6.312767 -4.898329 1.356719 -0.479957 -4.584510 3.211840 0.355620 0.094090 0.171870 -5.412534 2.143051 -8.082552 20.997008 10.214475 15.773384 -1.804906 11.851772 7.437628 1.602173 0.496137 -6.071074 0.635611 -1.267740 32.714565 -20.840570 8.241320 -8.816490 -25.560547 -4.612644 2.332942 4.138877 10.267512 2.315213 6.530112 4.257963 -0.955070 -4.106235 2.512855 0.696430 0.389170 -0.200340 0.159560 20.499442 7.921648 2.770212 36.378200 12.476706 -6.354118 12.289866 50.797511 3.574145 1.466057 -1.791666 -0.536880 0.188790 -0.223040 -0.694090 
-0.158920 16.043880 -1.171120 7.260255 -28.951231 -0.347075 -14.746332 10.435439 4.700961 -11.784086 -6.446678 -43.279036 -6.606795 1.733051 -5.923922 -1.443355 1.943712 4.108000 0.679640 0.077630 0.838440 18.954330 -11.059307 3.292988 2.966100 -2.638770 2.470269 6.744005 -4.758767 -0.606668 -0.533100 -4.689154 3.175008 0.360310 0.080900 0.171930 -5.544837 2.219547 -8.131425 21.853767 9.531041 14.116521 -0.934389 10.666513 6.991183 1.300297 0.989672 -5.813749 1.315900 -2.111663 34.122607 -20.616810 7.394800 -7.719700 -25.127204 -5.360967 2.242350 5.399670 9.599539 1.970965 7.664256 -0.249999 -0.867033 -4.042749 2.659542 0.661790 0.384100 -0.198430 0.162130 20.860241 8.139126 2.350741 36.433360 15.446168 -3.992097 2.288921 37.621899 -0.346983 1.561026 -1.645628 -0.504800 0.171040 -0.229740 -0.672790 
-0.112070 15.981050 -1.146600 6.499484 -28.739651 0.836175 -14.659369 10.319265 4.699073 -12.061126 -6.408467 -43.078102 -6.594844 1.695110 -6.433841 -1.365501 1.951458 4.145586 0.587830 -0.002830 0.729020 19.031411 -11.197494 3.330468 3.175344 -2.550082 1.729834 7.050982 -4.707561 -0.730700 -0.463944 -4.684892 3.227687 0.305160 0.171900 0.157080 -5.778598 2.685616 -8.160199 23.320068 10.460184 12.978558 -0.695698 11.650061 5.697269 0.896959 1.574027 -6.106200 2.281921 -3.200950 35.026838 -19.666780 6.570980 -3.602300 -24.690620 -6.384291 1.911163 6.425421 9.194288 1.335472 8.181971 -8.038202 -0.772806 -4.021497 2.832059 0.574190 0.442500 -0.269050 0.182100 21.121313 9.080651 3.222557 36.374855 16.272250 -1.619220 -4.019049 24.572737 -1.880938 1.707628 -1.597537 -0.504890 0.178760 -0.198630 -0.619100 
-0.071900 15.935930 -1.106880 5.625613 -29.335720 2.359886 -14.574122 10.220395 4.664282 -12.050479 -6.501607 -43.341917 -5.301655 1.801061 -4.621019 -1.339310 1.853499 4.186277 0.525330 -0.063930 0.626260 19.116750 -11.343620 3.322647 3.268906 -2.333990 0.760795 7.352892 -4.730134 -0.071490 -0.398261 -4.676071 3.236453 0.265430 0.245410 0.176290 -6.058345 3.129270 -8.057327 25.045508 10.858977 11.079524 -0.915515 11.996521 5.336552 0.385111 0.563218 -6.288979 0.666225 -2.600762 35.426495 -18.063840 6.087340 -0.699070 -22.996318 -5.801543 1.813230 2.904220 6.339036 0.552063 11.445048 -10.211347 -0.944132 -4.140512 2.862286 0.498220 0.487620 -0.335390 0.187920 20.467868 9.432893 3.468715 37.369354 17.533952 0.782454 -6.115961 14.829863 -1.852029 1.857887 -1.611232 -0.484390 0.150260 -0.148230 -0.575110 
-0.057270 15.905850 -1.098840 6.347884 -30.385423 3.027296 -14.581997 10.199031 4.695723 -12.421659 -6.965874 -44.143653 -3.909603 2.049010 -0.730974 -1.404790 1.789666 4.207364 0.479220 -0.110860 0.575250 19.105532 -11.435127 3.214919 1.971465 -1.850760 -0.369970 7.636758 -4.903020 1.533049 -0.324552 -4.642014 3.242218 0.264770 0.317150 0.174400 -6.060572 3.294266 -7.915249 23.729296 11.710554 10.129959 -0.226004 12.558143 5.593208 -0.190997 -0.128170 -5.928182 -0.367306 -1.500979 34.717363 -16.504770 6.025980 -0.635840 -20.851451 -4.695957 1.424772 -0.728138 2.097089 0.160466 15.131873 -8.408413 -1.196241 -4.307596 2.757163 0.478720 0.526850 -0.388510 0.167460 19.613075 9.050865 3.033632 39.339690 18.919291 2.005615 -8.324407 9.631074 -1.838726 1.918168 -1.599136 -0.516790 0.188470 -0.081720 -0.573420 
-0.047520 15.932260 -1.069640 4.493916 -31.156896 3.642954 -14.481813 10.413646 4.647555 -11.023813 -6.674132 -44.653443 -1.001225 2.492216 7.732631 -1.383391 1.899762 4.140057 0.468820 -0.120340 0.537450 19.143778 -11.687350 3.153570 2.669172 -1.546305 -2.150062 7.512835 -5.429148 6.484783 -0.266833 -4.526742 3.291924 0.244240 0.339110 0.180230 -6.213692 3.450949 -7.757316 26.904362 10.959631 10.523593 -1.328031 12.406693 5.098020 -0.408209 -1.108774 -5.771013 -1.922484 0.025058 35.259507 -15.420100 6.647510 -1.041300 -19.400318 -3.495635 1.106155 -4.219719 2.287852 -0.499863 14.421297 -18.306405 -1.734240 -4.207561 2.865930 0.494390 0.524210 -0.387910 0.177030 18.389839 8.475678 2.822748 42.075214 19.415954 2.036155 -10.650600 8.648248 -2.025234 1.922976 -1.595922 -0.509800 0.200320 -0.059160 -0.563140 
-0.011980 15.975880 -1.036120 2.640736 -31.895535 4.025536 -14.383100 10.782297 4.531939 -9.348227 -6.077371 -43.083187 0.870831 2.716446 14.007493 -1.346536 2.269438 3.985583 0.483950 -0.111080 0.550570 19.135494 -11.926438 3.089304 2.414228 0.264107 -5.905803 8.710344 -6.497542 15.450381 -0.264088 -4.576380 3.256695 0.235630 0.301300 0.128800 -6.257038 3.474166 -7.644536 31.089083 9.551575 12.287854 -4.140063 12.538502 4.162027 -0.197382 -2.687170 -6.113620 -4.678020 1.360423 36.486742 -14.482620 6.541110 -3.503510 -18.126172 -2.088845 0.860431 -8.423225 1.837839 -1.231899 19.904290 -21.861259 -2.850322 -4.128891 2.769516 0.600420 0.436710 -0.335740 0.182890 16.392615 8.253329 3.239721 46.019516 18.310322 0.441886 -13.703184 12.473435 -2.841295 1.858971 -1.536371 -0.540550 0.265510 -0.063770 -0.577050 
0.029300 16.011710 -1.000530 1.456999 -31.599116 4.850387 -14.379051 10.934111 4.372018 -8.263155 -6.100958 -41.504726 2.906144 2.839308 20.107047 -1.307276 2.945972 3.749103 0.430960 -0.192460 0.503840 19.112684 -11.755969 3.172486 0.036098 4.627777 -11.996439 13.393159 -8.955915 26.417853 -0.376605 -5.538413 2.885298 0.214520 0.364990 0.089400 -6.221183 3.304736 -7.592799 33.786717 7.683559 13.126758 -6.398751 11.524043 2.856297 -0.504949 -4.586636 -5.612075 -7.800865 2.820877 34.859215 -12.822290 6.136590 -4.145470 -16.270910 1.079568 0.385530 -11.983463 3.312803 -1.799981 21.854982 -30.179745 -4.236478 -4.101853 2.776925 0.645700 0.431470 -0.380530 0.174300 14.865656 6.143205 2.779523 49.109730 17.383362 -1.297973 -14.036277 20.196836 -3.826459 1.728298 -1.454212 -0.613430 0.337150 -0.007470 -0.587480 
0.067440 16.008460 -0.954580 1.665446 -30.246479 5.341996 -14.457949 10.751051 4.090535 -8.627391 -6.608105 -39.364133 5.608861 2.648724 25.968952 -1.182275 3.701658 3.477563 0.416240 -0.196590 0.439200 19.112834 -11.079724 3.653229 -7.010149 9.901586 -19.542300 23.304364 -14.611633 35.753976 -0.821084 -7.799029 2.075340 0.227380 0.420100 0.074200 -6.221838 2.975037 -7.689935 34.566926 5.974316 12.660534 -7.775460 9.653835 2.186062 -0.785908 -6.488914 -4.814725 -10.925811 3.993256 32.261913 -11.450010 5.507260 -3.422390 -14.669730 4.837226 -0.339936 -16.680259 2.688558 -2.289372 28.294322 -34.391937 -6.521319 -4.140399 2.810638 0.603430 0.454490 -0.435420 0.195670 13.602746 2.960107 2.168269 51.070409 15.628630 -3.381212 -11.877438 31.177934 -4.362741 1.592538 -1.452622 -0.624370 0.347450 0.008050 -0.559820 
0.091360 15.984760 -0.934480 2.266644 -28.227687 5.202045 -14.552427 10.560924 3.689122 -8.475834 -6.674743 -36.529320 6.308276 2.918579 30.135310 -1.008767 4.365883 3.251649 0.430990 -0.147250 0.385450 19.128055 -10.328820 4.328538 -15.051631 12.320826 -26.469593 33.983229 -21.382408 40.017818 -1.344898 -9.895660 1.407246 0.252660 0.456580 0.067930 -6.188711 2.478783 -7.843761 34.384529 4.115701 12.193060 -8.532067 7.378111 2.638769 -0.761325 -7.559707 -4.621146 -12.716641 4.346854 29.993357 -10.388480 4.560690 -2.187380 -14.867958 6.173585 -0.564036 -18.690385 3.685492 -3.049375 34.357506 -40.771649 -9.915592 -4.107677 2.851791 0.523500 0.477820 -0.469460 0.242130 13.853631 1.415729 2.157253 50.373867 12.916588 -5.963806 -6.904941 44.467310 -3.648041 1.476048 -1.554779 -0.593680 0.334520 -0.021920 -0.506400 
